<svg height="512pt" viewBox="0 0 512.00036 512" width="512pt" xmlns="http://www.w3.org/2000/svg"><path d="m382.011719 185.980469c-5.519531 0-9.996094 4.480469-9.996094 10s4.476563 10 9.996094 10c5.53125 0 10-4.480469 10-10s-4.46875-10-10-10zm0 0"/><path d="m139.988281 461.953125c0 5.523437-4.480469 10-10 10-5.523437 0-10-4.476563-10-10 0-5.519531 4.476563-10 10-10 5.519531 0 10 4.480469 10 10zm0 0"/><path d="m511.96875 426.414062c0-.070312-.003906-.140624-.007812-.210937-.496094-11.011719-15.179688-44.289063-42.765626-51.84375-91.894531-25.191406-112.710937-36.476563-221.96875-98.296875-20.902343-14.675781-52.9375-12.050781-71.699218 5.976562-6.179688 5.933594-13.277344 10.71875-21.097656 14.226563-41.28125 18.539063-72.238282-6.832031-79.96875-9.242187-4.507813-2.25-9.992188-.796876-12.789063 3.398437-1.6875 3.613281-40.75 50.417969-41.636719 129.101563l-15.554687 31.117187c-13.84375 27.605469 5.960937 61.308594 37.875 61.308594h399.902343c38.582032 0 69.800782-31.253907 69.742188-69.847657l-.019531-15.445312c0-.082031-.007813-.160156-.011719-.242188zm-275.957031-133.789062c.589843.421875-.015625.0625 10.835937 6.195312l-5.023437 7.183594c-3.167969 4.527344-2.066407 10.761719 2.457031 13.925782 4.515625 3.160156 10.753906 2.074218 13.925781-2.457032l6.140625-8.78125c6.183594 3.480469 12.066406 6.773438 17.664063 9.890625l-6.789063 9.6875c-3.167968 4.519531-2.070312 10.757813 2.453125 13.925781 4.53125 3.175782 10.765625 2.0625 13.925781-2.453124l8.019532-11.441407c6.265625 3.421875 12.195312 6.613281 17.855468 9.601563l-7.898437 11.277344c-3.167969 4.519531-2.066406 10.757812 2.453125 13.925781 4.523438 3.167969 10.757812 2.070312 13.929688-2.453125l9.46875-13.519532c9.863281 4.921876 19.113281 9.257813 28.304687 13.238282-14.949219 20.757812-42.757813 26.957031-64.996094 14.371094-12.421875-7.03125-120.207031-69.335938-120.207031-69.335938 3.816406-2.703125 7.449219-5.675781 10.847656-8.941406 11.859375-11.398438 33.652344-13.191406 46.632813-3.839844zm3.964843 159.328125h-33.425781c-8.015625 0-15.550781-3.121094-21.21875-8.789063l-16.558593-16.558593c-9.445313-9.445313-22.003907-14.648438-35.355469-14.648438h-93.140625c.433594-8.335937 1.378906-16.867187 2.835937-25.355469 8.460938 3.523438 17.5625 5.359376 26.882813 5.359376 17.351562 0 33.992187-6.394532 46.863281-18.003907 3.652344-3.296875 8.445313-4.03125 12.207031-1.878906l105.878906 60.679687c3.101563 1.78125 5.03125 5.109376 5.03125 8.679688zm202.28125 39.996094h-399.902343c-16.78125 0-27.316407-17.734375-19.992188-32.355469l13.816407-27.636719h97.238281c8.011719 0 15.546875 3.121094 21.214843 8.789063l16.558594 16.558594c9.445313 9.445312 22.003906 14.648437 35.359375 14.648437h255.402344c8.691406 0 16.933594-2.210937 24.128906-6.164063-8.402343 15.5625-24.820312 26.160157-43.824219 26.160157zm48.847657-62.867188c-3.273438 13.46875-15.261719 22.871094-29.148438 22.871094h-201.980469v-10.515625c0-10.707031-5.773437-20.675781-15.078124-26.023438l-105.890626-60.6875c-11.226562-6.429687-25.511718-4.667968-35.546874 4.382813-9.1875 8.289063-21.074219 12.851563-33.46875 12.851563-7.886719 0-15.554688-1.835938-22.5-5.339844 9.925781-37.128906 24.640624-55.425782 25.925781-57.761719 3.507812 1.015625 38.539062 25.328125 84.382812 7.660156 0 0 118.585938 68.546875 131.085938 75.625 10.882812 6.160157 22.71875 9.113281 34.402343 9.113281 22.085938 0 43.640626-10.554687 57.234376-29.96875l2.21875-3.164062c24.519531 9.402344 50.441406 17.09375 81.171874 25.519531 13.042969 3.574219 24.203126 19.496094 27.765626 33.0625-.328126 1.359375-.574219 2.375-.574219 2.375zm0 0"/><path d="m89.992188 451.953125h-39.996094c-5.523438 0-10 4.480469-10 10 0 5.523437 4.476562 10 10 10h39.996094c5.519531 0 10-4.476563 10-10 0-5.519531-4.476563-10-10-10zm0 0"/><path d="m507.535156 184.675781-15.570312-31.125c-.894532-79.042969-39.921875-125.40625-41.640625-129.101562-2.792969-4.195313-8.28125-5.652344-12.785157-3.398438-7.710937 2.386719-38.425781 27.429688-79.484374 8.964844-8.019532-3.605469-15.277344-8.5-21.578126-14.558594-18.761718-18.023437-50.792968-20.644531-71.703124-5.96875-66.328126 37.527344-99.628907 56.367188-135.714844 71.0625-22.738282 9.253907-46.921875 17.058594-86.253906 27.832031-25.082032 6.871094-42.246094 37.929688-42.773438 52.066407-.0039062.078125-.0117188.152343-.0117188.234375l-.0195312 15.445312c-.046875 38.589844 31.152344 69.847656 69.753906 69.847656h399.890625c31.945313 0 51.695313-33.773437 37.890625-61.300781zm-38.644531-64.046875c1.453125 8.488282 2.402344 17.019532 2.832031 25.355469h-93.140625c-13.359375 0-25.914062 5.203125-35.34375 14.644531l-16.574219 16.566406c-5.578124 5.582032-13.304687 8.785157-21.203124 8.785157h-33.4375v-10.519531c0-3.570313 1.929687-6.894532 5.03125-8.675782l105.878906-60.679687c3.765625-2.160157 8.554687-1.421875 12.210937 1.878906 12.878907 11.605469 29.523438 18 46.863281 18 9.324219.003906 18.425782-1.835937 26.882813-5.355469zm-192.902344-94.578125c12.984375-9.351562 34.777344-7.5625 46.628907 3.824219 3.535156 3.398438 7.324218 6.488281 11.3125 9.292969-15.011719 8.675781-108.25 62.574219-120.664063 69.597656-22.308594 12.625-50.226563 6.351563-65.144531-14.5625 9.210937-4.027344 18.441406-8.390625 28.253906-13.328125l9.667969 13.800781c3.160156 4.515625 9.394531 5.628907 13.925781 2.453125 4.523438-3.167968 5.621094-9.402344 2.453125-13.925781l-8.128906-11.605469c5.65625-3.003906 11.574219-6.210937 17.832031-9.644531l8.273438 11.8125c3.171874 4.53125 9.410156 5.617187 13.925781 2.457031 4.523437-3.167968 5.621093-9.402344 2.453125-13.925781l-7.0625-10.089844c5.589844-3.125 11.464844-6.425781 17.644531-9.910156l6.445313 9.203125c3.171874 4.53125 9.410156 5.613281 13.925781 2.453125 4.523437-3.167969 5.621093-9.402344 2.453125-13.925781l-5.328125-7.609375c11.128906-6.296875 10.527343-5.933594 11.132812-6.367188zm-255.667969 134.675781c3.570313-13.566406 14.726563-29.484374 27.765626-33.054687 35.972656-9.855469 59.628906-17.316406 81.085937-25.648437l2.304687 3.292968c20.835938 29.753906 60.25 38.621094 91.636719 20.855469 12.492188-7.070313 112.007813-64.597656 131.570313-75.902344 45.800781 17.710938 80.398437-6.375 83.898437-7.382812 1.023438 1.859375 16.214844 21.457031 25.933594 57.757812-6.941406 3.507813-14.609375 5.34375-22.507813 5.34375-12.390624 0-24.273437-4.566406-33.46875-12.851562-10.035156-9.054688-24.320312-10.816407-35.550781-4.382813l-105.882812 60.6875c-9.304688 5.339844-15.082031 15.308594-15.082031 26.019532v10.519531h-201.980469c-13.886719 0-25.871094-9.402344-29.148438-22.902344 0-.007813-.246093-1.007813-.574219-2.351563zm449.324219 65.25h-399.890625c-18.949218 0-35.410156-10.558593-43.828125-26.15625 7.191407 3.949219 15.433594 6.160157 24.121094 6.160157h255.414063c13.164062 0 26.050781-5.34375 35.34375-14.644531l16.574218-16.566407c5.660156-5.664062 13.1875-8.785156 21.203125-8.785156h97.242188l13.828125 27.648437c7.339844 14.640626-3.257813 32.34375-20.007813 32.34375zm0 0"/><path d="m462.003906 185.980469h-39.996094c-5.519531 0-9.996093 4.476562-9.996093 10 0 5.519531 4.476562 10 9.996093 10h39.996094c5.523438 0 10-4.480469 10-10 0-5.523438-4.476562-10-10-10zm0 0"/></svg>